<?xml version="1.0" encoding="utf-8"?>
<!-- Generator: Adobe Illustrator 22.0.1, SVG Export Plug-In . SVG Version: 6.00 Build 0)  -->
<svg version="1.1" id="Layer_1" xmlns="http://www.w3.org/2000/svg" xmlns:xlink="http://www.w3.org/1999/xlink" x="0px" y="0px"
	 viewBox="0 0 80 25" style="enable-background:new 0 0 80 25;" xml:space="preserve">
<style type="text/css">
	.st0{fill:#EA2F09;}
	.st1{fill:#03B0D2;}
	.st2{fill:#392C39;}
	.st3{fill:#F9B38C;}
</style>
<title>bike</title>
<rect x="49" y="11" width="31" height="3"/>
<rect y="11" width="31" height="3"/>
<rect x="14" y="11" class="st0" width="52" height="3"/>
<rect x="25" y="5" class="st1" width="15" height="15"/>
<rect x="28" y="7" width="11" height="11"/>
<rect x="40" y="14" class="st2" width="6" height="6"/>
<rect x="40" y="5" class="st2" width="10" height="6"/>
<rect x="39" y="7" class="st3" width="2" height="11"/>
<rect x="25" class="st1" width="9" height="5"/>
<rect x="25" y="20" class="st1" width="9" height="5"/>
<polygon class="st0" points="54,7 53,7 53,6 52,6 52,5 51,5 51,4 50,4 50,1 53,1 53,2 54,2 54,3 55,3 55,4 56,4 56,5 57,5 57,12 
	54,12 "/>
<rect x="34" class="st3" width="18" height="5"/>
<polygon class="st0" points="54,18 53,18 53,19 52,19 52,20 51,20 51,21 50,21 50,24 53,24 53,23 54,23 54,22 55,22 55,21 56,21 
	56,20 57,20 57,13 54,13 "/>
<rect x="34" y="20" class="st3" width="18" height="5"/>
</svg>
