<svg id="Layer_1" data-name="Layer 1" xmlns="http://www.w3.org/2000/svg" viewBox="0 0 810 4804"><defs><style>.cls-1{fill:none;fill-rule:evenodd;}</style></defs><title>curve</title><path class="cls-1" d="M722.53,4800.13v0c0-110-90-200-200-200s-200-90-200-200,90-200,200-200,200-90,200-200v-200c0-110-90-200-200-200s-200-90-200-200V2600c0-110,90-200,200-200s200-90,200-200V1600c0-110-90-200-200-200s-200-90-200-200,90-200,200-200,200-90,200-200V600a200.59,200.59,0,0,0-200-200h-200a200.59,200.59,0,0,1-200-200V0"/></svg>